<?xml version="1.0" standalone="no"?>
<!DOCTYPE svg PUBLIC "-//W3C//DTD SVG 20010904//EN"
 "http://www.w3.org/TR/2001/REC-SVG-20010904/DTD/svg10.dtd">
<svg version="1.0" xmlns="http://www.w3.org/2000/svg"
 width="347.000000pt" height="347.000000pt" viewBox="0 0 347.000000 347.000000"
 preserveAspectRatio="xMidYMid meet">
<metadata>
Created by potrace 1.11, written by Peter Selinger 2001-2013
</metadata>
<g transform="translate(0.000000,347.000000) scale(0.100000,-0.100000)"
fill="#000000" stroke="none">
<path d="M1650 3466 c-5 -4 -116 -18 -147 -19 -7 0 -13 -3 -13 -7 0 -4 53 -56
117 -116 140 -130 207 -198 235 -239 l21 -30 -27 28 c-43 44 -40 32 12 -45 27
-40 57 -91 67 -113 10 -22 21 -44 24 -50 3 -5 -36 31 -86 82 -98 98 -120 111
-155 92 -69 -36 -267 -178 -251 -180 23 -4 55 -7 120 -12 125 -10 140 -15 137
-44 -1 -13 -4 -27 -7 -29 -7 -7 -37 8 -37 19 0 5 -22 -14 -49 -44 -27 -30 -70
-76 -95 -104 -25 -27 -46 -52 -46 -55 0 -8 75 -99 121 -147 40 -41 40 -42 24
-67 l-18 -26 -77 42 c-79 44 -98 56 -179 119 -49 38 -91 63 -95 57 -16 -19
-119 -229 -115 -233 4 -3 57 -19 120 -36 63 -16 119 -31 124 -33 6 -1 37 -11
70 -21 73 -23 71 -22 90 -24 8 0 19 -10 25 -21 11 -20 9 -20 -72 -15 -151 8
-230 20 -343 52 -101 28 -145 37 -145 31 0 -3 20 -63 45 -134 25 -70 45 -129
45 -129 0 -5 271 5 279 9 5 3 47 13 92 22 46 8 91 20 101 25 26 14 23 -7 -4
-26 -23 -16 -182 -70 -234 -79 -16 -3 -56 -8 -89 -11 -33 -3 -69 -8 -80 -10
-11 -2 -24 -4 -28 -4 -11 -1 7 -32 75 -127 49 -68 62 -82 76 -74 9 5 49 20 88
34 39 13 107 47 151 75 44 28 90 51 103 51 20 0 16 -8 -36 -55 -32 -30 -97
-83 -144 -117 -47 -34 -90 -68 -97 -74 -9 -9 6 -23 68 -63 44 -28 84 -51 89
-51 18 0 19 -34 0 -70 -11 -22 -20 -55 -20 -74 0 -19 -5 -47 -10 -62 -9 -23
-7 -31 14 -53 19 -21 56 -91 56 -107 0 -1 -13 1 -29 6 -15 4 -48 6 -72 5 -35
-3 -49 2 -80 26 -24 19 -40 26 -44 19 -4 -6 -13 -9 -21 -6 -29 11 -22 -13 10
-35 19 -13 32 -27 30 -31 -8 -13 -51 -9 -95 9 -41 16 -42 16 -60 -8 -12 -16
-14 -27 -8 -36 8 -8 4 -10 -12 -6 -14 4 -20 2 -16 -4 4 -6 0 -13 -8 -17 -8 -3
-15 -10 -15 -17 0 -25 -101 -139 -124 -139 -6 0 -35 9 -65 20 -56 22 -88 19
-99 -9 -4 -9 -20 -38 -37 -64 -30 -47 -30 -48 -75 -43 -58 6 -218 86 -269 134
-71 68 -88 127 -67 232 7 33 6 34 -9 15 -59 -72 -117 -228 -118 -317 -1 -67
24 -130 68 -170 17 -16 68 -51 115 -80 47 -28 115 -82 152 -119 37 -37 77 -73
88 -79 29 -15 25 -31 -8 -28 -15 1 -33 -1 -40 -6 -7 -4 -33 -9 -60 -12 -26 -2
-60 -6 -77 -8 -37 -5 -75 14 -124 62 -41 39 -89 116 -96 152 -10 53 -15 60
-35 48 -34 -22 -55 -128 -55 -283 0 -66 5 -111 15 -133 18 -40 90 -87 146 -96
35 -5 68 -10 131 -21 37 -6 108 -41 134 -66 35 -34 61 -47 115 -59 52 -12 45
-17 113 80 23 33 38 65 37 80 -3 34 12 54 30 39 8 -6 14 -7 14 -2 0 13 60 42
116 57 45 11 49 15 49 42 0 16 5 31 10 33 6 2 25 10 43 18 17 7 32 11 32 9 0
-2 -18 -25 -40 -52 l-39 -48 26 -18 c27 -17 28 -17 52 5 19 18 23 18 18 5 -19
-49 -19 -53 2 -29 12 13 21 18 21 12 0 -26 57 20 90 72 30 47 42 58 80 69 25
7 47 13 50 13 3 1 20 9 39 19 l34 18 61 -65 c62 -67 82 -79 253 -146 l53 -21
18 21 c11 11 28 21 40 24 44 8 61 27 107 117 27 51 58 107 70 123 36 48 74
130 81 175 5 31 13 45 31 53 31 14 93 116 93 154 0 21 13 44 45 79 25 27 45
52 45 55 0 8 37 18 89 24 16 2 43 10 58 18 53 28 62 47 66 137 4 79 20 140 37
140 10 0 29 47 40 96 6 27 5 48 -6 72 -7 19 -12 37 -9 41 2 4 22 16 44 26 33
14 39 21 30 32 -15 17 -9 17 46 -7 26 -11 49 -20 52 -20 3 0 -15 23 -39 51
-72 85 -84 107 -31 55 28 -26 55 -47 61 -45 8 4 105 88 184 161 l30 27 -113
55 c-126 62 -208 115 -209 134 0 18 12 15 108 -23 48 -20 105 -38 127 -40 22
-3 51 -7 65 -10 87 -17 76 -25 135 98 30 61 55 113 55 115 0 2 -42 0 -92 -3
-51 -4 -102 -7 -113 -8 -64 -4 -237 32 -249 52 -3 4 30 8 72 8 125 2 204 10
273 28 35 9 75 19 89 22 14 2 28 7 32 11 4 4 14 52 23 107 9 55 18 113 21 128
2 16 1 26 -3 24 -17 -10 -211 -100 -258 -119 -27 -11 -59 -24 -70 -29 -72 -30
-179 -59 -188 -50 -13 13 -24 5 118 93 66 41 146 92 179 113 l59 37 -39 36
c-22 19 -65 59 -98 89 -66 62 -49 68 -146 -46 -30 -36 -76 -87 -101 -114 l-46
-49 -20 26 c-12 14 -26 26 -32 26 -16 0 -15 2 23 77 43 85 80 173 75 177 -2 1
-30 14 -61 29 -56 26 -57 28 -46 52 16 35 5 40 -41 21 -44 -17 -70 -13 -73 13
-1 9 -2 23 -4 31 -1 8 -2 23 -3 33 -1 9 -6 17 -12 17 -5 0 -8 -4 -4 -9 3 -5 1
-12 -5 -16 -6 -4 -8 -10 -5 -15 10 -16 -57 -82 -176 -172 -41 -32 -38 -19 8
29 42 45 98 134 93 149 -1 4 2 10 7 13 5 3 16 25 25 49 l17 43 -42 72 c-27 46
-80 110 -145 175 l-102 103 4 -39 c3 -21 14 -76 25 -123 10 -46 19 -91 19 -99
0 -8 1 -53 2 -98 2 -88 -5 -108 -38 -98 -15 5 -23 24 -35 84 -24 113 -26 121
-43 161 -9 20 -20 47 -25 60 -5 13 -12 21 -15 18 -3 -3 -1 -14 4 -24 25 -46
56 -261 41 -284 -6 -11 -9 -8 -9 10 0 13 -12 71 -26 129 -24 97 -41 141 -110
288 -13 28 -24 56 -24 63 0 6 -10 15 -22 20 -24 8 -251 15 -258 7z m790 -637
c-6 -13 -30 -35 -53 -49 -61 -37 -67 -37 -22 -1 22 18 49 43 59 57 23 29 31
25 16 -7z m-658 -19 c-1 -6 2 -9 7 -5 11 6 17 1 86 -61 37 -33 38 -34 6 -13
-19 12 -41 23 -50 24 -9 1 -26 5 -38 9 -21 7 -25 13 -22 33 0 3 -6 10 -15 15
-25 14 -19 29 7 19 12 -5 21 -14 19 -21z m538 -64 c0 -2 -8 -10 -17 -17 -16
-13 -17 -12 -4 4 13 16 21 21 21 13z m54 -110 c-7 -30 -16 -32 -40 -9 -16 16
-15 18 12 29 35 15 37 13 28 -20z m-474 -21 c0 -8 -9 -15 -20 -15 -20 0 -26
11 -13 23 12 13 33 7 33 -8z m-156 -942 c-21 -37 -45 -79 -52 -93 -9 -20 -21
-27 -48 -28 l-36 -3 22 28 c12 15 42 55 66 88 81 107 107 112 48 8z m497 -850
c-8 -15 -10 -15 -11 -2 0 17 10 32 18 25 2 -3 -1 -13 -7 -23z m-1261 -221 c0
-18 -48 -64 -59 -57 -6 3 -6 18 0 38 5 17 9 33 9 33 0 1 11 1 25 0 14 0 25 -7
25 -14z"/>
</g>
</svg>
